<svg width="122" height="75" viewBox="0 0 122 75" fill="none" xmlns="http://www.w3.org/2000/svg">
<g clip-path="url(#clip0_2496_530)">
<path d="M0 22.8916H12.4404C27.666 22.8916 27.6196 45.73 12.4404 45.73H7.93773V55.3852H0V22.8916ZM7.93773 38.2564H12.4404C17.3609 38.2564 17.3609 30.5972 12.4404 30.5972H7.93773V38.2564Z" fill="#2196F3"/>
<path d="M26.4228 39.1848C26.4228 29.6224 33.9428 22.381 43.2267 22.381C52.5106 22.381 60.077 29.6224 60.077 39.1848C60.077 48.608 52.5106 55.8494 43.2267 55.8494C33.9428 55.8494 26.4228 48.7473 26.4228 39.1848ZM34.3142 39.1848C34.3142 51.4396 52.0928 51.3467 52.0928 39.1848C52.0928 26.9301 34.3142 26.8837 34.3142 39.1848Z" fill="#2196F3"/>
<path d="M70.0797 39.1848C70.0797 50.5576 85.3052 51.3467 87.5798 41.7379H95.6104C94.4035 50.2327 87.4405 55.8494 78.9922 55.8494C69.7083 55.8494 62.1883 48.7473 62.1883 39.1848C62.1883 29.6224 69.7083 22.381 78.9922 22.381C87.3477 22.381 94.5427 28.0442 95.564 36.3997H87.5334C85.1196 26.9301 70.0797 27.8585 70.0797 39.1848Z" fill="#2196F3"/>
<path d="M113.581 55.3852H105.644V30.3187H96.8702V22.8916H122.308V30.3187H113.581V55.3852Z" fill="#2196F3"/>
<path d="M25.1787 54.7615C25.9338 55.9585 26.7284 57.1274 27.5731 58.2652C34.5409 68.5253 48.0282 74.7798 60.6322 74.7132C61.0772 74.7266 61.5192 74.7352 61.9582 74.7389C75.0839 75.3243 89.1476 68.8529 96.3697 58.2655C97.2205 57.1232 98.0106 55.9603 98.7674 54.7615C97.6421 55.6239 96.5197 56.4477 95.3776 57.2469C85.1296 64.7338 73.8871 67.5655 62.0216 67.2556C61.6249 67.2523 61.2242 67.2467 60.8194 67.2388C49.2888 67.2135 38.4624 64.5173 28.566 57.2475C27.4296 56.4524 26.3022 55.6222 25.1787 54.7615Z" fill="#2196F3"/>
<path d="M41.3904 40.4181C41.3904 41.7957 42.5072 42.9126 43.8849 42.9126C45.2626 42.9126 46.3794 41.7957 46.3794 40.4181C46.3794 39.0404 45.2626 37.9235 43.8849 37.9235C42.5072 37.9235 41.3904 39.0404 41.3904 40.4181Z" fill="#2196F3"/>
<path d="M76.3138 40.4181C76.3138 41.7957 77.4307 42.9126 78.8084 42.9126C80.1861 42.9126 81.3029 41.7957 81.3029 40.4181C81.3029 39.0404 80.1861 37.9235 78.8084 37.9235C77.4307 37.9235 76.3138 39.0404 76.3138 40.4181Z" fill="#2196F3"/>
<path d="M41.3904 40.4181C41.3904 41.7957 42.5072 42.9126 43.8849 42.9126C45.2626 42.9126 46.3794 41.7957 46.3794 40.4181C46.3794 39.0404 45.2626 37.9235 43.8849 37.9235C42.5072 37.9235 41.3904 39.0404 41.3904 40.4181Z" stroke="#2196F3" stroke-width="1.24726"/>
<path d="M76.3138 40.4181C76.3138 41.7957 77.4307 42.9126 78.8084 42.9126C80.1861 42.9126 81.3029 41.7957 81.3029 40.4181C81.3029 39.0404 80.1861 37.9235 78.8084 37.9235C77.4307 37.9235 76.3138 39.0404 76.3138 40.4181Z" stroke="#2196F3" stroke-width="1.24726"/>
<path d="M33.91 17.3436C60.7263 17.3436 76.9407 14.2254 91.9079 3" stroke="#2196F3" stroke-width="4.98905" stroke-linecap="round"/>
<path d="M91.908 3L68.2099 5.49453" stroke="#2196F3" stroke-width="4.98905" stroke-linecap="round"/>
<path d="M92.5258 3.00039L83.7295 17.75" stroke="#2196F3" stroke-width="4.98905" stroke-linecap="round"/>
</g>
<defs>
<clipPath id="clip0_2496_530">
<rect width="122" height="75" fill="white"/>
</clipPath>
</defs>
</svg>
